<?xml version='1.0' encoding='iso-8859-1'?>
<svg version="1.1" xmlns="http://www.w3.org/2000/svg" viewBox="0 0 137.145 137.145" xmlns:xlink="http://www.w3.org/1999/xlink" enable-background="new 0 0 137.145 137.145">
  <g>
    <g>
      <path fill="#007bff" d="M58.513,77.709L43.11,61.702l-8.89,9.161l15.403,16.007l-0.037,0.039l8.89,9.16l8.89-9.16v0l35.557-36.643l-8.889-9.162    L58.513,77.709z M109.716,0H27.429C12.28,0,0,12.281,0,27.429v82.286c0,15.149,12.28,27.429,27.429,27.429h82.287    c15.148,0,27.429-12.28,27.429-27.429V27.429C137.144,12.281,124.864,0,109.716,0z M123.43,102.859    c0,11.362-9.21,20.572-20.572,20.572H34.286c-11.361,0-20.572-9.21-20.572-20.572V34.287c0-11.361,9.21-20.572,20.572-20.572    h68.572c11.362,0,20.572,9.211,20.572,20.572V102.859z"/>
    </g>
  </g>
</svg>
